<svg width="690" height="643" viewBox="0 0 690 643" fill="none" xmlns="http://www.w3.org/2000/svg">
<path d="M318.066 22.6656C327.645 -6.81631 369.355 -6.81632 378.934 22.6656L436.173 198.829C440.457 212.014 452.743 220.94 466.607 220.94H651.835C682.835 220.94 695.724 260.608 670.645 278.829L520.791 387.704C509.576 395.852 504.883 410.296 509.167 423.481L566.405 599.644C575.985 629.126 542.241 653.642 517.162 635.421L367.309 526.546C356.094 518.398 340.906 518.398 329.691 526.546L179.838 635.421C154.759 653.642 121.015 629.126 130.595 599.644L187.833 423.481C192.117 410.296 187.424 395.852 176.209 387.704L26.3554 278.829C1.27655 260.608 14.1653 220.94 45.1645 220.94H230.393C244.257 220.94 256.543 212.014 260.827 198.829L318.066 22.6656Z" fill="#17256E"/>
</svg>
